<?xml version="1.0" encoding="iso-8859-1"?>
<!-- Generator: Adobe Illustrator 19.0.0, SVG Export Plug-In . SVG Version: 6.00 Build 0)  -->
<svg version="1.1" id="Layer_1" xmlns="http://www.w3.org/2000/svg" xmlns:xlink="http://www.w3.org/1999/xlink" x="0px" y="0px"
	 viewBox="0 0 505 505" style="enable-background:new 0 0 505 505;" xml:space="preserve">
<circle style="fill:#90DFAA;" cx="252.5" cy="252.5" r="252.5"/>
<path style="fill:#FFFFFF;" d="M410.3,222.5c0-10.4-8.8-18.9-19.8-18.9h-63.1c-3-0.9-5.8-2.7-7.5-5.2c-3.6-5.4-2.4-12.6,0.3-18.5
	c4-8.9,10.7-16.4,14.9-25.2c6.1-12.7,6.4-27.8,0.9-40.7c-2.7-6.4-7-12.4-13.2-15.9c-2.5-1.4-5.4-2.4-8.1-1.7
	c-4.6,1.1-6.7,6.2-7.9,10.6c-2.6,9.6-4.3,19.5-9.2,28.2c-2.5,4.4-5.7,8.3-8.9,12.2c-7.4,8.8-15.2,17.5-24.7,24.3
	c-10.9,7.9-21.8,18.5-34.5,23.6c-10.4,4.2-23.4,3.9-33.7,8.1v151.2h8.2h112.6h49.3c10.9,0,19.8-8.5,19.8-18.9s-8.8-18.9-19.8-18.9
	h13.4c10.9,0,19.8-8.5,19.8-18.9s-8.8-18.9-19.8-18.9h9c10.9,0,19.8-8.5,19.8-18.9s-8.8-18.9-19.8-18.9h2.3
	C401.5,241.4,410.3,233,410.3,222.5z"/>
<path style="fill:#324A5E;" d="M190.7,183.8h-93c-1.7,0-3,1.3-3,3v183.5c0,1.7,1.3,3,3,3h93c7.4,0,13.4-6.4,13.4-14.4V198.2
	C204.2,190.3,198.1,183.8,190.7,183.8z"/>
<circle style="fill:#ACB3BA;" cx="149.4" cy="341.1" r="16.6"/>
<g>
</g>
<g>
</g>
<g>
</g>
<g>
</g>
<g>
</g>
<g>
</g>
<g>
</g>
<g>
</g>
<g>
</g>
<g>
</g>
<g>
</g>
<g>
</g>
<g>
</g>
<g>
</g>
<g>
</g>
</svg>
